<svg version="1.0" xmlns="http://www.w3.org/2000/svg" xmlns:xlink="http://www.w3.org/1999/xlink" x="0" y="0" width="2400" height="2695.991928076599" viewBox="154.6010287475586 107.70187408447265 30.797942504882812 34.59625183105469" preserveAspectRatio="xMidYMid meet" color-interpolation-filters="sRGB"><g><defs><linearGradient id="92" x1="0%" y1="0%" x2="100%" y2="0%"><stop offset="0%" stop-color="#fa71cd"></stop> <stop offset="100%" stop-color="#9b59b6"></stop></linearGradient><linearGradient id="93" x1="0%" y1="0%" x2="100%" y2="0%"><stop offset="0%" stop-color="#f9d423"></stop> <stop offset="100%" stop-color="#f83600"></stop></linearGradient><linearGradient id="94" x1="0%" y1="0%" x2="100%" y2="0%"><stop offset="0%" stop-color="#0064d2"></stop> <stop offset="100%" stop-color="#1cb0f6"></stop></linearGradient><linearGradient id="95" x1="0%" y1="0%" x2="100%" y2="0%"><stop offset="0%" stop-color="#f00978"></stop> <stop offset="100%" stop-color="#3f51b1"></stop></linearGradient><linearGradient id="96" x1="0%" y1="0%" x2="100%" y2="0%"><stop offset="0%" stop-color="#7873f5"></stop> <stop offset="100%" stop-color="#ec77ab"></stop></linearGradient><linearGradient id="97" x1="0%" y1="0%" x2="100%" y2="0%"><stop offset="0%" stop-color="#f9d423"></stop> <stop offset="100%" stop-color="#e14fad"></stop></linearGradient><linearGradient id="98" x1="0%" y1="0%" x2="100%" y2="0%"><stop offset="0%" stop-color="#009efd"></stop> <stop offset="100%" stop-color="#2af598"></stop></linearGradient><linearGradient id="99" x1="0%" y1="0%" x2="100%" y2="0%"><stop offset="0%" stop-color="#ffcc00"></stop> <stop offset="100%" stop-color="#00b140"></stop></linearGradient><linearGradient id="100" x1="0%" y1="0%" x2="100%" y2="0%"><stop offset="0%" stop-color="#d51007"></stop> <stop offset="100%" stop-color="#ff8177"></stop></linearGradient><linearGradient id="102" x1="0%" y1="0%" x2="100%" y2="0%"><stop offset="0%" stop-color="#a2b6df"></stop> <stop offset="100%" stop-color="#0c3483"></stop></linearGradient><linearGradient id="103" x1="0%" y1="0%" x2="100%" y2="0%"><stop offset="0%" stop-color="#7ac5d8"></stop> <stop offset="100%" stop-color="#eea2a2"></stop></linearGradient><linearGradient id="104" x1="0%" y1="0%" x2="100%" y2="0%"><stop offset="0%" stop-color="#00ecbc"></stop> <stop offset="100%" stop-color="#007adf"></stop></linearGradient><linearGradient id="105" x1="0%" y1="0%" x2="100%" y2="0%"><stop offset="0%" stop-color="#b88746"></stop> <stop offset="100%" stop-color="#fdf5a6"></stop></linearGradient></defs><g class="imagesvg isNoFont" transform="translate(154.90296936035156,108.00381660461426)"><g><rect fill="#070707" fill-opacity="0" stroke-width="2" x="0" y="0" width="30.194060803953484" height="33.99236800481107" class="image-rect"></rect> <svg x="0" y="0" width="30.194060803953484" height="33.99236800481107" filtersec="colorsb2021632759" class="image-svg-svg primary" style="overflow: visible;"><svg xmlns="http://www.w3.org/2000/svg" viewBox="0.6100000143051147 0.25 86.78799438476562 97.70600128173828"><path fill="#070707" d="M49.627 76.344c-15.504 0-28.49-12.55-28.49-27.29s13.096-27.296 28.49-27.296v10.916c-9.39 0-17.574 7.645-17.574 16.374s8.19 16.373 17.574 16.373v10.923z"></path><path fill="#070707" d="M49.517 97.955C22.552 97.955.61 76.013.61 49.048S22.552.25 49.517.25v10.916c-20.962 0-37.881 17.029-37.881 37.88S28.666 86.93 49.517 86.93v11.026zM49.517 87.04V76.122c14.849 0 26.965-12.116 26.965-26.965S64.366 22.083 49.517 22.083V11.167c20.962 0 37.881 17.029 37.881 37.88S70.479 87.04 49.517 87.04z"></path><path fill="#070707" d="M49.407 65.753V54.837c3.167 0 5.789-2.622 5.789-5.79s-2.622-5.788-5.79-5.788V32.343c9.17 0 16.705 7.535 16.705 16.705s-7.424 16.705-16.704 16.705z"></path></svg></svg> </g></g><defs v-gra="od"></defs></g></svg>