<svg version="1.0" xmlns="http://www.w3.org/2000/svg" xmlns:xlink="http://www.w3.org/1999/xlink" x="0" y="0" width="2400" height="716.0991727867207" viewBox="82.00529632568359 98.74461517333984 175.9893768310547 52.51076965332031" preserveAspectRatio="xMidYMid meet" color-interpolation-filters="sRGB"><g><defs><linearGradient id="92" x1="0%" y1="0%" x2="100%" y2="0%"><stop offset="0%" stop-color="#fa71cd"></stop> <stop offset="100%" stop-color="#9b59b6"></stop></linearGradient><linearGradient id="93" x1="0%" y1="0%" x2="100%" y2="0%"><stop offset="0%" stop-color="#f9d423"></stop> <stop offset="100%" stop-color="#f83600"></stop></linearGradient><linearGradient id="94" x1="0%" y1="0%" x2="100%" y2="0%"><stop offset="0%" stop-color="#0064d2"></stop> <stop offset="100%" stop-color="#1cb0f6"></stop></linearGradient><linearGradient id="95" x1="0%" y1="0%" x2="100%" y2="0%"><stop offset="0%" stop-color="#f00978"></stop> <stop offset="100%" stop-color="#3f51b1"></stop></linearGradient><linearGradient id="96" x1="0%" y1="0%" x2="100%" y2="0%"><stop offset="0%" stop-color="#7873f5"></stop> <stop offset="100%" stop-color="#ec77ab"></stop></linearGradient><linearGradient id="97" x1="0%" y1="0%" x2="100%" y2="0%"><stop offset="0%" stop-color="#f9d423"></stop> <stop offset="100%" stop-color="#e14fad"></stop></linearGradient><linearGradient id="98" x1="0%" y1="0%" x2="100%" y2="0%"><stop offset="0%" stop-color="#009efd"></stop> <stop offset="100%" stop-color="#2af598"></stop></linearGradient><linearGradient id="99" x1="0%" y1="0%" x2="100%" y2="0%"><stop offset="0%" stop-color="#ffcc00"></stop> <stop offset="100%" stop-color="#00b140"></stop></linearGradient><linearGradient id="100" x1="0%" y1="0%" x2="100%" y2="0%"><stop offset="0%" stop-color="#d51007"></stop> <stop offset="100%" stop-color="#ff8177"></stop></linearGradient><linearGradient id="102" x1="0%" y1="0%" x2="100%" y2="0%"><stop offset="0%" stop-color="#a2b6df"></stop> <stop offset="100%" stop-color="#0c3483"></stop></linearGradient><linearGradient id="103" x1="0%" y1="0%" x2="100%" y2="0%"><stop offset="0%" stop-color="#7ac5d8"></stop> <stop offset="100%" stop-color="#eea2a2"></stop></linearGradient><linearGradient id="104" x1="0%" y1="0%" x2="100%" y2="0%"><stop offset="0%" stop-color="#00ecbc"></stop> <stop offset="100%" stop-color="#007adf"></stop></linearGradient><linearGradient id="105" x1="0%" y1="0%" x2="100%" y2="0%"><stop offset="0%" stop-color="#b88746"></stop> <stop offset="100%" stop-color="#fdf5a6"></stop></linearGradient></defs><g fill="#feffff" class="iconlinesvg-g iconlinesvg" transform="translate(83.73103684186935,100.4731216430664)"><g class="tp-name"><g transform="translate(0, 0)"><g fill="#feffff" transform="scale(1)"><path d="M38.03-27.10L28.20-3.64L23.05-16.02L27.68-27.05L24.66-27.05L21.12-18.21L17.58-27.05L14.62-27.05L19.25-16.02L14.10-3.64L4.21-27.10L0.78-27.10L12.43 0L15.35 0L21.12-13.84L26.95 0L29.86 0L41.51-27.10Z" transform="translate(-0.7803468208092486, 37.97687861271677)"></path></g></g><g transform="translate(44, 7.532717731698511)"><g><g class="imagesvg"><g><rect fill="#feffff" fill-opacity="0" stroke-width="2" x="0" y="0" width="30.194060803953484" height="33.99236800481107" class="image-rect"></rect> <svg x="0" y="0" width="30.194060803953484" height="33.99236800481107" filtersec="colorsb5390496627" class="image-svg-svg primary" style="overflow: visible;"><svg xmlns="http://www.w3.org/2000/svg" viewBox="0.6100000143051147 0.25 86.78799438476562 97.70600128173828"><path fill="#feffff" d="M49.627 76.344c-15.504 0-28.49-12.55-28.49-27.29s13.096-27.296 28.49-27.296v10.916c-9.39 0-17.574 7.645-17.574 16.374s8.19 16.373 17.574 16.373v10.923z"></path><path fill="#feffff" d="M49.517 97.955C22.552 97.955.61 76.013.61 49.048S22.552.25 49.517.25v10.916c-20.962 0-37.881 17.029-37.881 37.88S28.666 86.93 49.517 86.93v11.026zM49.517 87.04V76.122c14.849 0 26.965-12.116 26.965-26.965S64.366 22.083 49.517 22.083V11.167c20.962 0 37.881 17.029 37.881 37.88S70.479 87.04 49.517 87.04z"></path><path fill="#feffff" d="M49.407 65.753V54.837c3.167 0 5.789-2.622 5.789-5.79s-2.622-5.788-5.79-5.788V32.343c9.17 0 16.705 7.535 16.705 16.705s-7.424 16.705-16.704 16.705z"></path></svg></svg> </g></g></g></g><g transform="translate(78, 0)"><g fill="#feffff" transform="scale(1)"><path d="M15.45 0.52C17.43 0.52 19.24 0.15 20.89-0.60C25.38-2.63 28.92-7.08 28.92-13.47C28.92-15.38 28.59-17.18 27.91-18.88C26.05-23.55 21.86-27.57 15.45-27.57C13.51-27.57 11.72-27.19 10.09-26.43C5.63-24.34 2.03-19.89 2.03-13.47C2.03-11.60 2.36-9.82 3.02-8.12C4.85-3.40 9.01 0.52 15.45 0.52ZM5.62-13.42C5.62-14.95 5.88-16.38 6.40-17.71C7.75-21.19 10.75-24.45 15.45-24.45C16.80-24.45 18.08-24.16 19.27-23.59C22.65-21.98 25.34-18.45 25.34-13.53C25.34-12.00 25.08-10.58 24.55-9.26C23.19-5.80 20.14-2.60 15.45-2.60C14.10-2.60 12.82-2.88 11.63-3.43C8.25-5.00 5.62-8.55 5.62-13.42Z" transform="translate(-2.0289017341040463, 37.97687861271677)"></path></g></g><g transform="translate(108, 0)"><g fill="#feffff" transform="scale(1)"><path d="M7.08-21.85L7.08-27.10L3.90-27.10L3.90 11.08L7.44 11.08L7.44-5.62C9.38-2.43 12.82 0.52 17.74 0.52C19.54 0.52 21.20 0.15 22.71-0.60C26.98-2.71 30.02-7.24 30.02-13.53C30.02-17.57 28.39-20.99 26.38-23.28C24.34-25.60 21.28-27.57 17.17-27.57C12.54-27.57 9.02-24.82 7.08-21.85ZM16.75-2.60C15.75-2.60 14.77-2.77 13.84-3.12C10.87-4.22 8.67-6.54 7.44-9.42L7.44-17.74C7.58-18.64 7.95-19.50 8.56-20.32C10.07-22.35 12.93-24.45 16.34-24.45C17.76-24.45 19.08-24.16 20.32-23.57C23.69-21.95 26.43-18.41 26.43-13.53C26.43-12.14 26.20-10.79 25.75-9.49C24.50-5.90 21.52-2.60 16.75-2.60Z" transform="translate(-3.9017341040462425, 37.97687861271677)"></path></g></g><g transform="translate(138, 0)"><g fill="#feffff" transform="scale(1)"><path d="M25.13-5.25L25.13-2.60C25.13-1.04 26.66 0.16 28.25 0.16C28.56 0.16 28.98 0.10 29.50 0L29.50-3.12C28.66-3.12 28.25-3.61 28.25-4.58L28.25-37.98L24.71-37.98L24.71-21.43C22.86-24.56 19.29-27.57 14.46-27.57C12.66-27.57 11.00-27.20 9.49-26.45C5.24-24.35 2.08-19.73 2.08-13.47C2.08-11.64 2.40-9.88 3.04-8.19C4.79-3.61 8.82 0.52 15.03 0.52C19.56 0.52 23.29-2.23 25.13-5.25ZM15.82-2.60C14.39-2.60 13.07-2.90 11.84-3.49C8.46-5.10 5.72-8.58 5.72-13.47C5.72-14.86 5.95-16.21 6.40-17.53C7.63-21.14 10.60-24.45 15.35-24.45C16.28-24.45 17.24-24.28 18.21-23.93C21.13-22.89 23.64-20.57 24.71-17.69L24.71-9.31C24.57-8.38 24.20-7.50 23.59-6.68C22.09-4.66 19.20-2.60 15.82-2.60Z" transform="translate(-2.0809248554913298, 37.97687861271677)"></path></g></g><g transform="translate(169, 0)"><g fill="#feffff" transform="scale(1)"><path d="M3.90 0L7.44 0L7.44-27.10L3.90-27.10ZM3.90-32.77L7.44-32.77L7.44-37.98L3.90-37.98Z" transform="translate(-3.901734104046243, 37.97687861271677)"></path></g></g></g> </g><defs v-gra="od"></defs></g></svg>